# xmcd CD database file
#
# Track frame offsets:
#	150
#	10005
#	28812
#	48205
#	68317
#	93585
#	120567
#	142247
#	161280
#	176037
#	205217
#	230860
#	256962
#	260585
#	270705
#
# Disc length: 3875 seconds
#
# Revision: 0
# Processed by: cddbd v1.4PL0 Copyright (c) Steve Scherf et al.
# Submitted via: CDex 1.50beta9
#
DISCID=d10f210f
DTITLE=Leo Cuypers - Zeeland Suite and Johnny Rep Suite
DYEAR=1977
DGENRE=Jazz
TTITLE0=Impromptu
TTITLE1=Something else
TTITLE2=Joplin
TTITLE3=Two bass shit
TTITLE4=Bach II and Bach I
TTITLE5=No plooi at all blues
TTITLE6=Bob's Lick
TTITLE7=Memoires
TTITLE8=Calypsooi
TTITLE9=Floris en Rosa
TTITLE10=Kirk
TTITLE11=Rank jump
TTITLE12=Rep Mars
TTITLE13=Freule Pinard
TTITLE14=Cowboylied van Ome Piet
EXTD=YEAR: 1977
EXTT0=
EXTT1=
EXTT2=
EXTT3=
EXTT4=
EXTT5=
EXTT6=
EXTT7=
EXTT8=
EXTT9=
EXTT10=
EXTT11=
EXTT12=
EXTT13=
EXTT14=
PLAYORDER=
